<svg width="24" height="24" viewBox="0 0 24 24" fill="none" xmlns="http://www.w3.org/2000/svg">
<path d="M22.3601 8.27L22.0701 5.5C21.6501 2.48 20.2801 1.25 17.3501 1.25H6.59014C3.65014 1.25 2.29014 2.48 1.86014 5.53L1.59014 8.28C1.49014 9.35 1.78014 10.39 2.41014 11.2C3.17014 12.19 4.34014 12.75 5.64014 12.75C6.90014 12.75 8.11014 12.12 8.87014 11.11C9.21716 11.6193 9.68423 12.0353 10.2301 12.3213C10.776 12.6073 11.3839 12.7546 12.0001 12.75C13.2901 12.75 14.4201 12.15 15.1101 11.15C15.8801 12.14 17.0701 12.75 18.3101 12.75C19.6401 12.75 20.8401 12.16 21.5901 11.12C22.1901 10.32 22.4601 9.31 22.3601 8.27V8.27ZM11.3501 16.66C10.7362 16.7256 10.1684 17.0164 9.75653 17.4764C9.34463 17.9363 9.11788 18.5326 9.12014 19.15V21.89C9.12014 22.16 9.34014 22.38 9.61014 22.38H14.3801C14.6501 22.38 14.8701 22.16 14.8701 21.89V19.5C14.8801 17.41 13.6501 16.42 11.3501 16.66Z" fill="black"/>
<path d="M21.3699 14.398V17.378C21.3699 20.138 19.1299 22.378 16.3699 22.378C16.2399 22.378 16.1153 22.3264 16.0234 22.2345C15.9315 22.1426 15.8799 22.018 15.8799 21.888V19.498C15.8799 18.218 15.4899 17.218 14.7299 16.538C14.0599 15.928 13.1499 15.628 12.0199 15.628C11.7699 15.628 11.5199 15.638 11.2499 15.668C10.3893 15.7561 9.59224 16.1612 9.01374 16.8044C8.43523 17.4476 8.11662 18.2829 8.11988 19.148V21.888C8.11988 22.158 7.89988 22.378 7.62988 22.378C4.86988 22.378 2.62988 20.138 2.62988 17.378V14.418C2.62995 14.2575 2.66867 14.0993 2.74277 13.9569C2.81687 13.8145 2.92417 13.692 3.0556 13.5998C3.18703 13.5076 3.33873 13.4484 3.49786 13.4272C3.657 13.406 3.8189 13.4234 3.96988 13.478C4.23988 13.568 4.50988 13.638 4.78988 13.678C4.90988 13.698 5.03988 13.718 5.15988 13.718C5.31988 13.738 5.47988 13.748 5.63988 13.748C6.79988 13.748 7.93988 13.318 8.83988 12.578C9.69988 13.318 10.8199 13.748 11.9999 13.748C13.1899 13.748 14.2899 13.338 15.1499 12.598C16.0499 13.328 17.1699 13.748 18.3099 13.748C18.4899 13.748 18.6699 13.738 18.8399 13.718C19.2527 13.6837 19.6594 13.5963 20.0499 13.458C20.1997 13.4067 20.3597 13.3918 20.5164 13.4146C20.6731 13.4374 20.8222 13.4972 20.9512 13.5891C21.0802 13.681 21.1855 13.8023 21.2583 13.943C21.3311 14.0836 21.3694 14.2396 21.3699 14.398V14.398Z" fill="black"/>
</svg>
